<svg xmlns="http://www.w3.org/2000/svg" xmlns:xlink="http://www.w3.org/1999/xlink" width="840" height="928.4"><rect width="840" height="928.4" rx="5" ry="5" class="a"/><svg y="0%" x="0%"><circle cx="20" cy="20" r="6" fill="#ff5f58"/><circle cx="40" cy="20" r="6" fill="#ffbd2e"/><circle cx="60" cy="20" r="6" fill="#18c132"/></svg><svg height="868.4" viewBox="0 0 80 86.84" width="800" x="15" xmlns="http://www.w3.org/2000/svg" xmlns:xlink="http://www.w3.org/1999/xlink" y="50"><style>@keyframes q{0%{transform:translateX(0)}1.39%{transform:translateX(-80px)}1.42%{transform:translateX(-320px)}1.8%{transform:translateX(-560px)}5.13%{transform:translateX(-640px)}5.44%{transform:translateX(-720px)}5.81%{transform:translateX(-800px)}6.65%{transform:translateX(-880px)}7.58%{transform:translateX(-960px)}8.1%{transform:translateX(-1040px)}8.88%{transform:translateX(-1120px)}9.54%{transform:translateX(-1200px)}9.59%{transform:translateX(-1280px)}10.13%{transform:translateX(-1360px)}12.8%{transform:translateX(-1440px)}13.96%{transform:translateX(-1520px)}14.55%{transform:translateX(-1600px)}15.34%{transform:translateX(-1680px)}17.62%{transform:translateX(-1760px)}20.1%{transform:translateX(-1840px)}21.21%{transform:translateX(-1920px)}23.03%{transform:translateX(-2000px)}24.08%{transform:translateX(-2080px)}24.86%{transform:translateX(-2160px)}26.23%{transform:translateX(-2240px)}26.82%{transform:translateX(-2320px)}28.3%{transform:translateX(-2400px)}36.73%{transform:translateX(-2480px)}37.13%{transform:translateX(-2560px)}37.78%{transform:translateX(-2640px)}38.17%{transform:translateX(-2720px)}41.16%{transform:translateX(-2800px)}41.42%{transform:translateX(-2880px)}43.03%{transform:translateX(-2960px)}45.86%{transform:translateX(-3040px)}46.45%{transform:translateX(-3120px)}46.84%{transform:translateX(-3200px)}48.14%{transform:translateX(-3280px)}48.6%{transform:translateX(-3360px)}49.06%{transform:translateX(-3440px)}50.85%{transform:translateX(-3520px)}54.2%{transform:translateX(-3600px)}54.72%{transform:translateX(-3680px)}60.92%{transform:translateX(-3760px)}61.29%{transform:translateX(-3840px)}61.31%{transform:translateX(-3920px)}61.32%{transform:translateX(-4080px)}62.93%{transform:translateX(-4160px)}66.03%{transform:translateX(-4240px)}72.36%{transform:translateX(-4400px)}72.41%{transform:translateX(-4480px)}72.47%{transform:translateX(-4560px)}72.5%{transform:translateX(-4960px)}72.87%{transform:translateX(-5200px)}to{transform:translateX(-5280px)}}.a{fill:#282d35}.f,.g,.h,.i,.j{fill:#a8cc8c;font-weight:700}.g,.h,.i,.j{fill:#66c2cd}.h,.i,.j{fill:#71bef2}.i,.j{fill:#e88388}.j{fill:#dbab79}.k{fill:#a8cc8c}.l{fill:#b9c0cb}.m{fill:#dbab79}</style><g font-size="1.67" font-family="Monaco,Consolas,Menlo,'Bitstream Vera Sans Mono','Powerline Symbols',monospace"><defs><symbol id="1"><text y="1.67" class="f">➜</text><text x="3.006" y="1.67" class="g">tax-declare-front</text><text x="21.042" y="1.67" class="h">git:(</text><text x="26.052" y="1.67" class="i">dev-20190702-R4</text><text x="41.082" y="1.67" class="h">)</text><text x="43.086" y="1.67" class="j">✗</text></symbol><symbol id="2"><text y="1.67" class="f">➜</text><text x="3.006" y="1.67" class="g">tax-declare-front</text><text x="21.042" y="1.67" class="h">git:(</text><text x="26.052" y="1.67" class="i">dev-20190702-R4</text><text x="41.082" y="1.67" class="h">)</text><text x="43.086" y="1.67" class="j">✗</text><text x="45.09" y="1.67" class="k">git</text></symbol><symbol id="3"><text y="1.67" class="f">➜</text><text x="3.006" y="1.67" class="g">tax-declare-front</text><text x="21.042" y="1.67" class="h">git:(</text><text x="26.052" y="1.67" class="i">dev-20190702-R4</text><text x="41.082" y="1.67" class="h">)</text><text x="43.086" y="1.67" class="j">✗</text><text x="45.09" y="1.67" class="k">git</text><text x="49.098" y="1.67" class="l">commi</text></symbol><symbol id="4"><text y="1.67" class="f">➜</text><text x="3.006" y="1.67" class="g">tax-declare-front</text><text x="21.042" y="1.67" class="h">git:(</text><text x="26.052" y="1.67" class="i">dev-20190702-R4</text><text x="41.082" y="1.67" class="h">)</text><text x="43.086" y="1.67" class="j">✗</text><text x="45.09" y="1.67" class="k">git</text><text x="49.098" y="1.67" class="l">commii</text></symbol><symbol id="5"><text y="1.67" class="f">➜</text><text x="3.006" y="1.67" class="g">tax-declare-front</text><text x="21.042" y="1.67" class="h">git:(</text><text x="26.052" y="1.67" class="i">dev-20190702-R4</text><text x="41.082" y="1.67" class="h">)</text><text x="43.086" y="1.67" class="j">✗</text><text x="45.09" y="1.67" class="k">git</text><text x="49.098" y="1.67" class="l">commit</text></symbol><symbol id="6"><text y="1.67" class="f">➜</text><text x="3.006" y="1.67" class="g">tax-declare-front</text><text x="21.042" y="1.67" class="h">git:(</text><text x="26.052" y="1.67" class="i">dev-20190702-R4</text><text x="41.082" y="1.67" class="h">)</text><text x="43.086" y="1.67" class="j">✗</text><text x="45.09" y="1.67" class="k">git</text><text x="49.098" y="1.67" class="l">commit</text><text x="56.112" y="1.67" class="l">-</text></symbol><symbol id="7"><text y="1.67" class="f">➜</text><text x="3.006" y="1.67" class="g">tax-declare-front</text><text x="21.042" y="1.67" class="h">git:(</text><text x="26.052" y="1.67" class="i">dev-20190702-R4</text><text x="41.082" y="1.67" class="h">)</text><text x="43.086" y="1.67" class="j">✗</text><text x="45.09" y="1.67" class="k">git</text><text x="49.098" y="1.67" class="l">commit</text><text x="56.112" y="1.67" class="l">-m</text></symbol><symbol id="8"><text y="1.67" class="f">➜</text><text x="3.006" y="1.67" class="g">tax-declare-front</text><text x="21.042" y="1.67" class="h">git:(</text><text x="26.052" y="1.67" class="i">dev-20190702-R4</text><text x="41.082" y="1.67" class="h">)</text><text x="43.086" y="1.67" class="j">✗</text><text x="45.09" y="1.67" class="k">git</text><text x="49.098" y="1.67" class="l">commit</text><text x="56.112" y="1.67" class="l">-m</text><text x="59.118" y="1.67" class="m">&quot;&quot;</text></symbol><symbol id="9"><text y="1.67" class="f">➜</text><text x="3.006" y="1.67" class="g">tax-declare-front</text><text x="21.042" y="1.67" class="h">git:(</text><text x="26.052" y="1.67" class="i">dev-20190702-R4</text><text x="41.082" y="1.67" class="h">)</text><text x="43.086" y="1.67" class="j">✗</text><text x="45.09" y="1.67" class="k">git</text><text x="49.098" y="1.67" class="l">commit</text><text x="56.112" y="1.67" class="l">-m</text><text x="59.118" y="1.67" class="m">&quot;test()&quot;</text></symbol><symbol id="10"><text y="1.67" class="f">➜</text><text x="3.006" y="1.67" class="g">tax-declare-front</text><text x="21.042" y="1.67" class="h">git:(</text><text x="26.052" y="1.67" class="i">dev-20190702-R4</text><text x="41.082" y="1.67" class="h">)</text><text x="43.086" y="1.67" class="j">✗</text><text x="45.09" y="1.67" class="k">git</text><text x="49.098" y="1.67" class="l">commit</text><text x="56.112" y="1.67" class="l">-m</text><text x="59.118" y="1.67" class="m">&quot;test(eslint)&quot;</text></symbol><symbol id="11"><text y="1.67" class="f">➜</text><text x="3.006" y="1.67" class="g">tax-declare-front</text><text x="21.042" y="1.67" class="h">git:(</text><text x="26.052" y="1.67" class="i">dev-20190702-R4</text><text x="41.082" y="1.67" class="h">)</text><text x="43.086" y="1.67" class="j">✗</text><text x="45.09" y="1.67" class="k">git</text><text x="49.098" y="1.67" class="l">commit</text><text x="56.112" y="1.67" class="l">-m</text><text x="59.118" y="1.67" class="m">&quot;test(eslint):</text><text x="74.148" y="1.67" class="m">.&quot;</text></symbol><symbol id="12"><text y="1.67" class="l">husky</text><text x="6.012" y="1.67" class="l">&gt;</text><text x="8.016" y="1.67" class="l">pre-commit</text><text x="19.038" y="1.67" class="l">(node</text><text x="25.05" y="1.67" class="l">v11.10.1)</text></symbol><symbol id="13"><text y="1.67" class="l">check</text><text x="6.012" y="1.67" class="l">运行中...</text><text x="13.026" y="1.67" class="l">请耐心等待...</text></symbol><symbol id="14"><text y="1.67" fill="#e88388">[ERROR]</text><text x="9.018" y="1.67" class="l">有问题,</text><text x="14.028" y="1.67" class="l">赶紧改了吧</text></symbol><symbol id="15"><text y="1.67" class="m">[WARNING]</text><text x="11.022" y="1.67" class="l">文件位置:</text><text x="17.034" y="1.67" class="l">/Users/yangyong/Documents/dxhy/tax-declare-front/src/frontend/T</text></symbol><symbol id="16"><text y="1.67" class="l">axModule/index.js</text></symbol><symbol id="17"><text y="1.67" class="l">{</text><text x="2.004" y="1.67" class="l">ruleId:</text><text x="10.02" y="1.67" class="k">&apos;semi&apos;</text><text x="16.032" y="1.67" class="l">,</text></symbol><symbol id="18"><text x="2.004" y="1.67" class="l">severity:</text><text x="12.024" y="1.67" class="m">2</text><text x="13.026" y="1.67" class="l">,</text></symbol><symbol id="19"><text x="2.004" y="1.67" class="l">message:</text><text x="11.022" y="1.67" class="k">&apos;Missing</text><text x="20.04" y="1.67" class="k">semicolon.&apos;</text><text x="31.062" y="1.67" class="l">,</text></symbol><symbol id="20"><text x="2.004" y="1.67" class="l">line:</text><text x="8.016" y="1.67" class="m">17</text><text x="10.02" y="1.67" class="l">,</text></symbol><symbol id="21"><text x="2.004" y="1.67" class="l">column:</text><text x="10.02" y="1.67" class="m">27</text><text x="12.024" y="1.67" class="l">,</text></symbol><symbol id="22"><text x="2.004" y="1.67" class="l">nodeType:</text><text x="12.024" y="1.67" class="k">&apos;VariableDeclaration&apos;</text><text x="33.066" y="1.67" class="l">,</text></symbol><symbol id="23"><text x="2.004" y="1.67" class="l">fix:</text><text x="7.014" y="1.67" class="l">{</text><text x="9.018" y="1.67" class="l">range:</text><text x="16.032" y="1.67" class="l">[</text><text x="18.036" y="1.67" class="m">385</text><text x="21.042" y="1.67" class="l">,</text><text x="23.046" y="1.67" class="m">385</text><text x="27.054" y="1.67" class="l">],</text><text x="30.06" y="1.67" class="l">text:</text><text x="36.072" y="1.67" class="k">&apos;;&apos;</text><text x="40.08" y="1.67" class="l">}</text><text x="42.084" y="1.67" class="l">}</text></symbol><symbol id="24"><text y="1.67" class="l">husky</text><text x="6.012" y="1.67" class="l">&gt;</text><text x="8.016" y="1.67" class="l">pre-commit</text><text x="19.038" y="1.67" class="l">hook</text><text x="24.048" y="1.67" class="l">failed</text><text x="31.062" y="1.67" class="l">(add</text><text x="36.072" y="1.67" class="l">--no-verify</text><text x="48.096" y="1.67" class="l">to</text><text x="51.102" y="1.67" class="l">bypass)</text></symbol><symbol id="25"><text y="1.67" class="i">➜</text><text x="3.006" y="1.67" class="g">tax-declare-front</text><text x="21.042" y="1.67" class="h">git:(</text><text x="26.052" y="1.67" class="i">dev-20190702-R4</text><text x="41.082" y="1.67" class="h">)</text><text x="43.086" y="1.67" class="j">✗</text></symbol><symbol id="a"><path fill="transparent" d="M0 0h80v41H0z"/></symbol><symbol id="b"><path fill="#6f7683" d="M0 0h1.102v2.171H0z"/></symbol></defs><path class="a" d="M0 0h80v86.84H0z"/><g style="animation-duration:23.009172s;animation-iteration-count:infinite;animation-name:q;animation-timing-function:steps(1,end)"><svg width="5360"><svg><use xlink:href="#a"/><use xlink:href="#b" x="-.004"/></svg><svg x="80"><use xlink:href="#a"/><use xlink:href="#b" x="-.004"/></svg><svg x="160"><use xlink:href="#a"/><use xlink:href="#b" x="-.004"/></svg><svg x="240"><use xlink:href="#a"/><use xlink:href="#b" x="-.004"/></svg><svg x="320"><use xlink:href="#a"/><use xlink:href="#b" x="-.004"/></svg><svg x="400"><use xlink:href="#a"/><use xlink:href="#b" x="44.996"/><use xlink:href="#1"/></svg><svg x="480"><use xlink:href="#a"/><use xlink:href="#b" x="44.996"/><use xlink:href="#1"/></svg><svg x="560"><use xlink:href="#a"/><use xlink:href="#b" x="44.996"/><use xlink:href="#1"/></svg><svg x="640"><use xlink:href="#a"/><use xlink:href="#b" x="45.996"/><text y="1.67" class="f">➜</text><text x="3.006" y="1.67" class="g">tax-declare-front</text><text x="21.042" y="1.67" class="h">git:(</text><text x="26.052" y="1.67" class="i">dev-20190702-R4</text><text x="41.082" y="1.67" class="h">)</text><text x="43.086" y="1.67" class="j">✗</text><text x="45.09" y="1.67" class="k">g</text></svg><svg x="720"><use xlink:href="#a"/><use xlink:href="#b" x="46.996"/><text y="1.67" class="f">➜</text><text x="3.006" y="1.67" class="g">tax-declare-front</text><text x="21.042" y="1.67" class="h">git:(</text><text x="26.052" y="1.67" class="i">dev-20190702-R4</text><text x="41.082" y="1.67" class="h">)</text><text x="43.086" y="1.67" class="j">✗</text><text x="45.09" y="1.67" class="i">gi</text></svg><svg x="800"><use xlink:href="#a"/><use xlink:href="#b" x="47.996"/><use xlink:href="#2"/></svg><svg x="880"><use xlink:href="#a"/><use xlink:href="#b" x="48.996"/><use xlink:href="#2"/></svg><svg x="960"><use xlink:href="#a"/><use xlink:href="#b" x="49.996"/><text y="1.67" class="f">➜</text><text x="3.006" y="1.67" class="g">tax-declare-front</text><text x="21.042" y="1.67" class="h">git:(</text><text x="26.052" y="1.67" class="i">dev-20190702-R4</text><text x="41.082" y="1.67" class="h">)</text><text x="43.086" y="1.67" class="j">✗</text><text x="45.09" y="1.67" class="k">git</text><text x="49.098" y="1.67" class="l">c</text></svg><svg x="1040"><use xlink:href="#a"/><use xlink:href="#b" x="50.996"/><text y="1.67" class="f">➜</text><text x="3.006" y="1.67" class="g">tax-declare-front</text><text x="21.042" y="1.67" class="h">git:(</text><text x="26.052" y="1.67" class="i">dev-20190702-R4</text><text x="41.082" y="1.67" class="h">)</text><text x="43.086" y="1.67" class="j">✗</text><text x="45.09" y="1.67" class="k">git</text><text x="49.098" y="1.67" class="l">co</text></svg><svg x="1120"><use xlink:href="#a"/><use xlink:href="#b" x="51.996"/><text y="1.67" class="f">➜</text><text x="3.006" y="1.67" class="g">tax-declare-front</text><text x="21.042" y="1.67" class="h">git:(</text><text x="26.052" y="1.67" class="i">dev-20190702-R4</text><text x="41.082" y="1.67" class="h">)</text><text x="43.086" y="1.67" class="j">✗</text><text x="45.09" y="1.67" class="k">git</text><text x="49.098" y="1.67" class="l">com</text></svg><svg x="1200"><use xlink:href="#a"/><use xlink:href="#b" x="52.996"/><text y="1.67" class="f">➜</text><text x="3.006" y="1.67" class="g">tax-declare-front</text><text x="21.042" y="1.67" class="h">git:(</text><text x="26.052" y="1.67" class="i">dev-20190702-R4</text><text x="41.082" y="1.67" class="h">)</text><text x="43.086" y="1.67" class="j">✗</text><text x="45.09" y="1.67" class="k">git</text><text x="49.098" y="1.67" class="l">comm</text></svg><svg x="1280"><use xlink:href="#a"/><use xlink:href="#b" x="53.996"/><use xlink:href="#3"/></svg><svg x="1360"><use xlink:href="#a"/><use xlink:href="#b" x="54.996"/><use xlink:href="#4"/></svg><svg x="1440"><use xlink:href="#a"/><use xlink:href="#b" x="55.996"/><text y="1.67" class="f">➜</text><text x="3.006" y="1.67" class="g">tax-declare-front</text><text x="21.042" y="1.67" class="h">git:(</text><text x="26.052" y="1.67" class="i">dev-20190702-R4</text><text x="41.082" y="1.67" class="h">)</text><text x="43.086" y="1.67" class="j">✗</text><text x="45.09" y="1.67" class="k">git</text><text x="49.098" y="1.67" class="l">commiit</text></svg><svg x="1520"><use xlink:href="#a"/><use xlink:href="#b" x="54.996"/><use xlink:href="#4"/></svg><svg x="1600"><use xlink:href="#a"/><use xlink:href="#b" x="53.996"/><use xlink:href="#3"/></svg><svg x="1680"><use xlink:href="#a"/><use xlink:href="#b" x="54.996"/><use xlink:href="#5"/></svg><svg x="1760"><use xlink:href="#a"/><use xlink:href="#b" x="55.996"/><use xlink:href="#5"/></svg><svg x="1840"><use xlink:href="#a"/><use xlink:href="#b" x="56.996"/><use xlink:href="#6"/></svg><svg x="1920"><use xlink:href="#a"/><use xlink:href="#b" x="57.996"/><text y="1.67" class="f">➜</text><text x="3.006" y="1.67" class="g">tax-declare-front</text><text x="21.042" y="1.67" class="h">git:(</text><text x="26.052" y="1.67" class="i">dev-20190702-R4</text><text x="41.082" y="1.67" class="h">)</text><text x="43.086" y="1.67" class="j">✗</text><text x="45.09" y="1.67" class="k">git</text><text x="49.098" y="1.67" class="l">commit</text><text x="56.112" y="1.67" class="l">-,</text></svg><svg x="2000"><use xlink:href="#a"/><use xlink:href="#b" x="56.996"/><use xlink:href="#6"/></svg><svg x="2080"><use xlink:href="#a"/><use xlink:href="#b" x="57.996"/><use xlink:href="#7"/></svg><svg x="2160"><use xlink:href="#a"/><use xlink:href="#b" x="58.996"/><use xlink:href="#7"/></svg><svg x="2240"><use xlink:href="#a"/><use xlink:href="#b" x="59.996"/><text y="1.67" class="f">➜</text><text x="3.006" y="1.67" class="g">tax-declare-front</text><text x="21.042" y="1.67" class="h">git:(</text><text x="26.052" y="1.67" class="i">dev-20190702-R4</text><text x="41.082" y="1.67" class="h">)</text><text x="43.086" y="1.67" class="j">✗</text><text x="45.09" y="1.67" class="k">git</text><text x="49.098" y="1.67" class="l">commit</text><text x="56.112" y="1.67" class="l">-m</text><text x="59.118" y="1.67" class="m">&quot;</text></svg><svg x="2320"><use xlink:href="#a"/><use xlink:href="#b" x="60.996"/><use xlink:href="#8"/></svg><svg x="2400"><use xlink:href="#a"/><use xlink:href="#b" x="59.996"/><use xlink:href="#8"/></svg><svg x="2480"><use xlink:href="#a"/><use xlink:href="#b" x="60.996"/><text y="1.67" class="f">➜</text><text x="3.006" y="1.67" class="g">tax-declare-front</text><text x="21.042" y="1.67" class="h">git:(</text><text x="26.052" y="1.67" class="i">dev-20190702-R4</text><text x="41.082" y="1.67" class="h">)</text><text x="43.086" y="1.67" class="j">✗</text><text x="45.09" y="1.67" class="k">git</text><text x="49.098" y="1.67" class="l">commit</text><text x="56.112" y="1.67" class="l">-m</text><text x="59.118" y="1.67" class="m">&quot;t&quot;</text></svg><svg x="2560"><use xlink:href="#a"/><use xlink:href="#b" x="61.996"/><text y="1.67" class="f">➜</text><text x="3.006" y="1.67" class="g">tax-declare-front</text><text x="21.042" y="1.67" class="h">git:(</text><text x="26.052" y="1.67" class="i">dev-20190702-R4</text><text x="41.082" y="1.67" class="h">)</text><text x="43.086" y="1.67" class="j">✗</text><text x="45.09" y="1.67" class="k">git</text><text x="49.098" y="1.67" class="l">commit</text><text x="56.112" y="1.67" class="l">-m</text><text x="59.118" y="1.67" class="m">&quot;te&quot;</text></svg><svg x="2640"><use xlink:href="#a"/><use xlink:href="#b" x="62.996"/><text y="1.67" class="f">➜</text><text x="3.006" y="1.67" class="g">tax-declare-front</text><text x="21.042" y="1.67" class="h">git:(</text><text x="26.052" y="1.67" class="i">dev-20190702-R4</text><text x="41.082" y="1.67" class="h">)</text><text x="43.086" y="1.67" class="j">✗</text><text x="45.09" y="1.67" class="k">git</text><text x="49.098" y="1.67" class="l">commit</text><text x="56.112" y="1.67" class="l">-m</text><text x="59.118" y="1.67" class="m">&quot;tes&quot;</text></svg><svg x="2720"><use xlink:href="#a"/><use xlink:href="#b" x="63.996"/><text y="1.67" class="f">➜</text><text x="3.006" y="1.67" class="g">tax-declare-front</text><text x="21.042" y="1.67" class="h">git:(</text><text x="26.052" y="1.67" class="i">dev-20190702-R4</text><text x="41.082" y="1.67" class="h">)</text><text x="43.086" y="1.67" class="j">✗</text><text x="45.09" y="1.67" class="k">git</text><text x="49.098" y="1.67" class="l">commit</text><text x="56.112" y="1.67" class="l">-m</text><text x="59.118" y="1.67" class="m">&quot;test&quot;</text></svg><svg x="2800"><use xlink:href="#a"/><use xlink:href="#b" x="64.996"/><text y="1.67" class="f">➜</text><text x="3.006" y="1.67" class="g">tax-declare-front</text><text x="21.042" y="1.67" class="h">git:(</text><text x="26.052" y="1.67" class="i">dev-20190702-R4</text><text x="41.082" y="1.67" class="h">)</text><text x="43.086" y="1.67" class="j">✗</text><text x="45.09" y="1.67" class="k">git</text><text x="49.098" y="1.67" class="l">commit</text><text x="56.112" y="1.67" class="l">-m</text><text x="59.118" y="1.67" class="m">&quot;test(&quot;</text></svg><svg x="2880"><use xlink:href="#a"/><use xlink:href="#b" x="65.996"/><use xlink:href="#9"/></svg><svg x="2960"><use xlink:href="#a"/><use xlink:href="#b" x="64.996"/><use xlink:href="#9"/></svg><svg x="3040"><use xlink:href="#a"/><use xlink:href="#b" x="65.996"/><text y="1.67" class="f">➜</text><text x="3.006" y="1.67" class="g">tax-declare-front</text><text x="21.042" y="1.67" class="h">git:(</text><text x="26.052" y="1.67" class="i">dev-20190702-R4</text><text x="41.082" y="1.67" class="h">)</text><text x="43.086" y="1.67" class="j">✗</text><text x="45.09" y="1.67" class="k">git</text><text x="49.098" y="1.67" class="l">commit</text><text x="56.112" y="1.67" class="l">-m</text><text x="59.118" y="1.67" class="m">&quot;test(e)&quot;</text></svg><svg x="3120"><use xlink:href="#a"/><use xlink:href="#b" x="66.996"/><text y="1.67" class="f">➜</text><text x="3.006" y="1.67" class="g">tax-declare-front</text><text x="21.042" y="1.67" class="h">git:(</text><text x="26.052" y="1.67" class="i">dev-20190702-R4</text><text x="41.082" y="1.67" class="h">)</text><text x="43.086" y="1.67" class="j">✗</text><text x="45.09" y="1.67" class="k">git</text><text x="49.098" y="1.67" class="l">commit</text><text x="56.112" y="1.67" class="l">-m</text><text x="59.118" y="1.67" class="m">&quot;test(es)&quot;</text></svg><svg x="3200"><use xlink:href="#a"/><use xlink:href="#b" x="67.996"/><text y="1.67" class="f">➜</text><text x="3.006" y="1.67" class="g">tax-declare-front</text><text x="21.042" y="1.67" class="h">git:(</text><text x="26.052" y="1.67" class="i">dev-20190702-R4</text><text x="41.082" y="1.67" class="h">)</text><text x="43.086" y="1.67" class="j">✗</text><text x="45.09" y="1.67" class="k">git</text><text x="49.098" y="1.67" class="l">commit</text><text x="56.112" y="1.67" class="l">-m</text><text x="59.118" y="1.67" class="m">&quot;test(esl)&quot;</text></svg><svg x="3280"><use xlink:href="#a"/><use xlink:href="#b" x="68.996"/><text y="1.67" class="f">➜</text><text x="3.006" y="1.67" class="g">tax-declare-front</text><text x="21.042" y="1.67" class="h">git:(</text><text x="26.052" y="1.67" class="i">dev-20190702-R4</text><text x="41.082" y="1.67" class="h">)</text><text x="43.086" y="1.67" class="j">✗</text><text x="45.09" y="1.67" class="k">git</text><text x="49.098" y="1.67" class="l">commit</text><text x="56.112" y="1.67" class="l">-m</text><text x="59.118" y="1.67" class="m">&quot;test(esli)&quot;</text></svg><svg x="3360"><use xlink:href="#a"/><use xlink:href="#b" x="69.996"/><text y="1.67" class="f">➜</text><text x="3.006" y="1.67" class="g">tax-declare-front</text><text x="21.042" y="1.67" class="h">git:(</text><text x="26.052" y="1.67" class="i">dev-20190702-R4</text><text x="41.082" y="1.67" class="h">)</text><text x="43.086" y="1.67" class="j">✗</text><text x="45.09" y="1.67" class="k">git</text><text x="49.098" y="1.67" class="l">commit</text><text x="56.112" y="1.67" class="l">-m</text><text x="59.118" y="1.67" class="m">&quot;test(eslin)&quot;</text></svg><svg x="3440"><use xlink:href="#a"/><use xlink:href="#b" x="70.996"/><use xlink:href="#10"/></svg><svg x="3520"><use xlink:href="#a"/><use xlink:href="#b" x="71.996"/><use xlink:href="#10"/></svg><svg x="3600"><use xlink:href="#a"/><use xlink:href="#b" x="72.996"/><text y="1.67" class="f">➜</text><text x="3.006" y="1.67" class="g">tax-declare-front</text><text x="21.042" y="1.67" class="h">git:(</text><text x="26.052" y="1.67" class="i">dev-20190702-R4</text><text x="41.082" y="1.67" class="h">)</text><text x="43.086" y="1.67" class="j">✗</text><text x="45.09" y="1.67" class="k">git</text><text x="49.098" y="1.67" class="l">commit</text><text x="56.112" y="1.67" class="l">-m</text><text x="59.118" y="1.67" class="m">&quot;test(eslint):&quot;</text></svg><svg x="3680"><use xlink:href="#a"/><use xlink:href="#b" x="73.996"/><text y="1.67" class="f">➜</text><text x="3.006" y="1.67" class="g">tax-declare-front</text><text x="21.042" y="1.67" class="h">git:(</text><text x="26.052" y="1.67" class="i">dev-20190702-R4</text><text x="41.082" y="1.67" class="h">)</text><text x="43.086" y="1.67" class="j">✗</text><text x="45.09" y="1.67" class="k">git</text><text x="49.098" y="1.67" class="l">commit</text><text x="56.112" y="1.67" class="l">-m</text><text x="59.118" y="1.67" class="m">&quot;test(eslint):</text><text x="74.148" y="1.67" class="m">&quot;</text></svg><svg x="3760"><use xlink:href="#a"/><use xlink:href="#b" x="74.996"/><use xlink:href="#11"/></svg><svg x="3840"><use xlink:href="#a"/><use xlink:href="#b" x="74.996"/><use xlink:href="#11"/></svg><svg x="3920"><use xlink:href="#a"/><use xlink:href="#b" x="-.004" y="2.146"/><use xlink:href="#11"/></svg><svg x="4000"><use xlink:href="#a"/><use xlink:href="#b" x="-.004" y="2.146"/><use xlink:href="#11"/></svg><svg x="4080"><use xlink:href="#a"/><use xlink:href="#b" x="-.004" y="2.146"/><use xlink:href="#11"/></svg><svg x="4160"><use xlink:href="#a"/><use xlink:href="#b" x="-.004" y="4.317"/><use xlink:href="#11"/><use xlink:href="#12" y="2.171"/></svg><svg x="4240"><use xlink:href="#a"/><use xlink:href="#b" x="-.004" y="6.488"/><use xlink:href="#11"/><use xlink:href="#12" y="2.171"/><use xlink:href="#13" y="4.342"/></svg><svg x="4320"><use xlink:href="#a"/><use xlink:href="#b" x="-.004" y="8.659"/><use xlink:href="#11"/><use xlink:href="#12" y="2.171"/><use xlink:href="#13" y="4.342"/><use xlink:href="#14" y="6.513"/></svg><svg x="4400"><use xlink:href="#a"/><use xlink:href="#b" x="-.004" y="15.172"/><use xlink:href="#11"/><use xlink:href="#12" y="2.171"/><use xlink:href="#13" y="4.342"/><use xlink:href="#14" y="6.513"/><use xlink:href="#15" y="8.684"/><use xlink:href="#16" y="10.855"/></svg><svg x="4480"><use xlink:href="#a"/><use xlink:href="#b" x="-.004" y="30.369"/><use xlink:href="#11"/><use xlink:href="#12" y="2.171"/><use xlink:href="#13" y="4.342"/><use xlink:href="#14" y="6.513"/><use xlink:href="#15" y="8.684"/><use xlink:href="#16" y="10.855"/><use xlink:href="#17" y="15.197"/><use xlink:href="#18" y="17.368"/><use xlink:href="#19" y="19.539"/><use xlink:href="#20" y="21.71"/><use xlink:href="#21" y="23.881"/><use xlink:href="#22" y="26.052"/><use xlink:href="#23" y="28.223"/></svg><svg x="4560"><use xlink:href="#a"/><use xlink:href="#b" x="-.004" y="32.54"/><use xlink:href="#11"/><use xlink:href="#12" y="2.171"/><use xlink:href="#13" y="4.342"/><use xlink:href="#14" y="6.513"/><use xlink:href="#15" y="8.684"/><use xlink:href="#16" y="10.855"/><use xlink:href="#17" y="15.197"/><use xlink:href="#18" y="17.368"/><use xlink:href="#19" y="19.539"/><use xlink:href="#20" y="21.71"/><use xlink:href="#21" y="23.881"/><use xlink:href="#22" y="26.052"/><use xlink:href="#23" y="28.223"/><use xlink:href="#24" y="30.394"/></svg><svg x="4640"><use xlink:href="#a"/><use xlink:href="#b" x="-.004" y="32.54"/><use xlink:href="#11"/><use xlink:href="#12" y="2.171"/><use xlink:href="#13" y="4.342"/><use xlink:href="#14" y="6.513"/><use xlink:href="#15" y="8.684"/><use xlink:href="#16" y="10.855"/><use xlink:href="#17" y="15.197"/><use xlink:href="#18" y="17.368"/><use xlink:href="#19" y="19.539"/><use xlink:href="#20" y="21.71"/><use xlink:href="#21" y="23.881"/><use xlink:href="#22" y="26.052"/><use xlink:href="#23" y="28.223"/><use xlink:href="#24" y="30.394"/></svg><svg x="4720"><use xlink:href="#a"/><use xlink:href="#b" x="-.004" y="32.54"/><use xlink:href="#11"/><use xlink:href="#12" y="2.171"/><use xlink:href="#13" y="4.342"/><use xlink:href="#14" y="6.513"/><use xlink:href="#15" y="8.684"/><use xlink:href="#16" y="10.855"/><use xlink:href="#17" y="15.197"/><use xlink:href="#18" y="17.368"/><use xlink:href="#19" y="19.539"/><use xlink:href="#20" y="21.71"/><use xlink:href="#21" y="23.881"/><use xlink:href="#22" y="26.052"/><use xlink:href="#23" y="28.223"/><use xlink:href="#24" y="30.394"/></svg><svg x="4800"><use xlink:href="#a"/><use xlink:href="#b" x="-.004" y="32.54"/><use xlink:href="#11"/><use xlink:href="#12" y="2.171"/><use xlink:href="#13" y="4.342"/><use xlink:href="#14" y="6.513"/><use xlink:href="#15" y="8.684"/><use xlink:href="#16" y="10.855"/><use xlink:href="#17" y="15.197"/><use xlink:href="#18" y="17.368"/><use xlink:href="#19" y="19.539"/><use xlink:href="#20" y="21.71"/><use xlink:href="#21" y="23.881"/><use xlink:href="#22" y="26.052"/><use xlink:href="#23" y="28.223"/><use xlink:href="#24" y="30.394"/></svg><svg x="4880"><use xlink:href="#a"/><use xlink:href="#b" x="-.004" y="32.54"/><use xlink:href="#11"/><use xlink:href="#12" y="2.171"/><use xlink:href="#13" y="4.342"/><use xlink:href="#14" y="6.513"/><use xlink:href="#15" y="8.684"/><use xlink:href="#16" y="10.855"/><use xlink:href="#17" y="15.197"/><use xlink:href="#18" y="17.368"/><use xlink:href="#19" y="19.539"/><use xlink:href="#20" y="21.71"/><use xlink:href="#21" y="23.881"/><use xlink:href="#22" y="26.052"/><use xlink:href="#23" y="28.223"/><use xlink:href="#24" y="30.394"/></svg><svg x="4960"><use xlink:href="#a"/><use xlink:href="#b" x="-.004" y="32.54"/><use xlink:href="#11"/><use xlink:href="#12" y="2.171"/><use xlink:href="#13" y="4.342"/><use xlink:href="#14" y="6.513"/><use xlink:href="#15" y="8.684"/><use xlink:href="#16" y="10.855"/><use xlink:href="#17" y="15.197"/><use xlink:href="#18" y="17.368"/><use xlink:href="#19" y="19.539"/><use xlink:href="#20" y="21.71"/><use xlink:href="#21" y="23.881"/><use xlink:href="#22" y="26.052"/><use xlink:href="#23" y="28.223"/><use xlink:href="#24" y="30.394"/></svg><svg x="5040"><use xlink:href="#a"/><use xlink:href="#b" x="44.996" y="32.54"/><use xlink:href="#11"/><use xlink:href="#12" y="2.171"/><use xlink:href="#13" y="4.342"/><use xlink:href="#14" y="6.513"/><use xlink:href="#15" y="8.684"/><use xlink:href="#16" y="10.855"/><use xlink:href="#17" y="15.197"/><use xlink:href="#18" y="17.368"/><use xlink:href="#19" y="19.539"/><use xlink:href="#20" y="21.71"/><use xlink:href="#21" y="23.881"/><use xlink:href="#22" y="26.052"/><use xlink:href="#23" y="28.223"/><use xlink:href="#24" y="30.394"/><use xlink:href="#25" y="32.565"/></svg><svg x="5120"><use xlink:href="#a"/><use xlink:href="#b" x="44.996" y="32.54"/><use xlink:href="#11"/><use xlink:href="#12" y="2.171"/><use xlink:href="#13" y="4.342"/><use xlink:href="#14" y="6.513"/><use xlink:href="#15" y="8.684"/><use xlink:href="#16" y="10.855"/><use xlink:href="#17" y="15.197"/><use xlink:href="#18" y="17.368"/><use xlink:href="#19" y="19.539"/><use xlink:href="#20" y="21.71"/><use xlink:href="#21" y="23.881"/><use xlink:href="#22" y="26.052"/><use xlink:href="#23" y="28.223"/><use xlink:href="#24" y="30.394"/><use xlink:href="#25" y="32.565"/></svg><svg x="5200"><use xlink:href="#a"/><use xlink:href="#b" x="44.996" y="32.54"/><use xlink:href="#11"/><use xlink:href="#12" y="2.171"/><use xlink:href="#13" y="4.342"/><use xlink:href="#14" y="6.513"/><use xlink:href="#15" y="8.684"/><use xlink:href="#16" y="10.855"/><use xlink:href="#17" y="15.197"/><use xlink:href="#18" y="17.368"/><use xlink:href="#19" y="19.539"/><use xlink:href="#20" y="21.71"/><use xlink:href="#21" y="23.881"/><use xlink:href="#22" y="26.052"/><use xlink:href="#23" y="28.223"/><use xlink:href="#24" y="30.394"/><use xlink:href="#25" y="32.565"/></svg><svg x="5280"><use xlink:href="#a"/><use xlink:href="#b" x="-.004" y="34.711"/><use xlink:href="#11"/><use xlink:href="#12" y="2.171"/><use xlink:href="#13" y="4.342"/><use xlink:href="#14" y="6.513"/><use xlink:href="#15" y="8.684"/><use xlink:href="#16" y="10.855"/><use xlink:href="#17" y="15.197"/><use xlink:href="#18" y="17.368"/><use xlink:href="#19" y="19.539"/><use xlink:href="#20" y="21.71"/><use xlink:href="#21" y="23.881"/><use xlink:href="#22" y="26.052"/><use xlink:href="#23" y="28.223"/><use xlink:href="#24" y="30.394"/><use xlink:href="#25" y="32.565"/></svg></svg></g></g></svg></svg>